<mxfile host="app.diagrams.net" modified="2022-07-20T17:58:17.212Z" agent="5.0 (Windows NT 10.0; Win64; x64) AppleWebKit/537.36 (KHTML, like Gecko) Chrome/103.0.0.0 Safari/537.36" etag="C0C5q-whVPPfKHWdI17r" version="20.1.3" type="github">
  <diagram id="C5RBs43oDa-KdzZeNtuy" name="Page-1">
    <mxGraphModel dx="868" dy="482" grid="1" gridSize="10" guides="1" tooltips="1" connect="1" arrows="1" fold="1" page="1" pageScale="1" pageWidth="827" pageHeight="1169" math="0" shadow="0">
      <root>
        <mxCell id="WIyWlLk6GJQsqaUBKTNV-0" />
        <mxCell id="WIyWlLk6GJQsqaUBKTNV-1" parent="WIyWlLk6GJQsqaUBKTNV-0" />
        <mxCell id="YbZrGERz8Xq2JB9HaXQr-7" value="" style="edgeStyle=orthogonalEdgeStyle;rounded=0;orthogonalLoop=1;jettySize=auto;html=1;" edge="1" parent="WIyWlLk6GJQsqaUBKTNV-1" source="YbZrGERz8Xq2JB9HaXQr-0" target="YbZrGERz8Xq2JB9HaXQr-6">
          <mxGeometry relative="1" as="geometry" />
        </mxCell>
        <mxCell id="YbZrGERz8Xq2JB9HaXQr-0" value="cliente" style="shape=umlActor;verticalLabelPosition=bottom;verticalAlign=top;html=1;outlineConnect=0;" vertex="1" parent="WIyWlLk6GJQsqaUBKTNV-1">
          <mxGeometry x="10" y="120" width="30" height="60" as="geometry" />
        </mxCell>
        <mxCell id="YbZrGERz8Xq2JB9HaXQr-5" value="restaurant" style="whiteSpace=wrap;html=1;aspect=fixed;" vertex="1" parent="WIyWlLk6GJQsqaUBKTNV-1">
          <mxGeometry x="660" y="160" width="80" height="80" as="geometry" />
        </mxCell>
        <mxCell id="YbZrGERz8Xq2JB9HaXQr-9" value="" style="edgeStyle=orthogonalEdgeStyle;rounded=0;orthogonalLoop=1;jettySize=auto;html=1;" edge="1" parent="WIyWlLk6GJQsqaUBKTNV-1" source="YbZrGERz8Xq2JB9HaXQr-6" target="YbZrGERz8Xq2JB9HaXQr-8">
          <mxGeometry relative="1" as="geometry" />
        </mxCell>
        <mxCell id="YbZrGERz8Xq2JB9HaXQr-6" value="&lt;br&gt;pedido" style="shape=singleArrow;whiteSpace=wrap;html=1;arrowWidth=0.4;arrowSize=0.4;verticalAlign=top;" vertex="1" parent="WIyWlLk6GJQsqaUBKTNV-1">
          <mxGeometry x="140" y="120" width="80" height="60" as="geometry" />
        </mxCell>
        <mxCell id="YbZrGERz8Xq2JB9HaXQr-12" value="" style="edgeStyle=orthogonalEdgeStyle;rounded=0;orthogonalLoop=1;jettySize=auto;html=1;" edge="1" parent="WIyWlLk6GJQsqaUBKTNV-1" source="YbZrGERz8Xq2JB9HaXQr-8" target="YbZrGERz8Xq2JB9HaXQr-11">
          <mxGeometry relative="1" as="geometry" />
        </mxCell>
        <mxCell id="YbZrGERz8Xq2JB9HaXQr-8" value="&lt;br&gt;atendentes" style="ellipse;whiteSpace=wrap;html=1;verticalAlign=top;" vertex="1" parent="WIyWlLk6GJQsqaUBKTNV-1">
          <mxGeometry x="300" y="80" width="65" height="50" as="geometry" />
        </mxCell>
        <mxCell id="YbZrGERz8Xq2JB9HaXQr-13" style="edgeStyle=orthogonalEdgeStyle;rounded=0;orthogonalLoop=1;jettySize=auto;html=1;exitX=1;exitY=0.25;exitDx=0;exitDy=0;entryX=0.375;entryY=0;entryDx=0;entryDy=0;entryPerimeter=0;" edge="1" parent="WIyWlLk6GJQsqaUBKTNV-1" source="YbZrGERz8Xq2JB9HaXQr-11" target="YbZrGERz8Xq2JB9HaXQr-5">
          <mxGeometry relative="1" as="geometry" />
        </mxCell>
        <mxCell id="YbZrGERz8Xq2JB9HaXQr-11" value="cozinha" style="whiteSpace=wrap;html=1;verticalAlign=top;" vertex="1" parent="WIyWlLk6GJQsqaUBKTNV-1">
          <mxGeometry x="598.75" y="65" width="112.5" height="35" as="geometry" />
        </mxCell>
        <mxCell id="YbZrGERz8Xq2JB9HaXQr-17" value="" style="edgeStyle=orthogonalEdgeStyle;rounded=0;orthogonalLoop=1;jettySize=auto;html=1;" edge="1" parent="WIyWlLk6GJQsqaUBKTNV-1" source="YbZrGERz8Xq2JB9HaXQr-15" target="YbZrGERz8Xq2JB9HaXQr-5">
          <mxGeometry relative="1" as="geometry" />
        </mxCell>
        <mxCell id="YbZrGERz8Xq2JB9HaXQr-24" value="" style="edgeStyle=orthogonalEdgeStyle;rounded=0;orthogonalLoop=1;jettySize=auto;html=1;" edge="1" parent="WIyWlLk6GJQsqaUBKTNV-1" source="YbZrGERz8Xq2JB9HaXQr-15" target="YbZrGERz8Xq2JB9HaXQr-23">
          <mxGeometry relative="1" as="geometry" />
        </mxCell>
        <mxCell id="YbZrGERz8Xq2JB9HaXQr-15" value="tempo de&lt;br&gt;espera" style="ellipse;shape=umlControl;whiteSpace=wrap;html=1;" vertex="1" parent="WIyWlLk6GJQsqaUBKTNV-1">
          <mxGeometry x="610" y="310" width="80" height="80" as="geometry" />
        </mxCell>
        <mxCell id="YbZrGERz8Xq2JB9HaXQr-19" value="nÂ° de mesa&lt;br&gt;item de cardapio" style="shape=note;whiteSpace=wrap;html=1;backgroundOutline=1;darkOpacity=0.05;" vertex="1" parent="WIyWlLk6GJQsqaUBKTNV-1">
          <mxGeometry x="420" y="40" width="80" height="100" as="geometry" />
        </mxCell>
        <mxCell id="YbZrGERz8Xq2JB9HaXQr-25" style="edgeStyle=orthogonalEdgeStyle;rounded=0;orthogonalLoop=1;jettySize=auto;html=1;" edge="1" parent="WIyWlLk6GJQsqaUBKTNV-1" source="YbZrGERz8Xq2JB9HaXQr-23">
          <mxGeometry relative="1" as="geometry">
            <mxPoint x="30" y="200" as="targetPoint" />
          </mxGeometry>
        </mxCell>
        <mxCell id="YbZrGERz8Xq2JB9HaXQr-23" value="cliente feliz com o seu pedido" style="rounded=1;whiteSpace=wrap;html=1;" vertex="1" parent="WIyWlLk6GJQsqaUBKTNV-1">
          <mxGeometry x="200" y="320" width="120" height="60" as="geometry" />
        </mxCell>
      </root>
    </mxGraphModel>
  </diagram>
</mxfile>
